<?xml version="1.0" encoding="iso-8859-1"?>
<!-- Generator: Adobe Illustrator 19.0.0, SVG Export Plug-In . SVG Version: 6.00 Build 0)  -->
<svg version="1.1" id="Layer_1" xmlns="http://www.w3.org/2000/svg" xmlns:xlink="http://www.w3.org/1999/xlink" x="0px" y="0px"
	 viewBox="0 0 496 496" style="enable-background:new 0 0 496 496;" xml:space="preserve">
<g>
	<g>
		<g>
			<path d="M456,64h-56v64H0v368h456c22.056,0,40-17.944,40-40V104C496,81.944,478.056,64,456,64z M456,480H16V144h384v288h56
				c13.232,0,24,10.768,24,24S469.232,480,456,480z M480,424.016c-6.688-5.032-15-8.016-24-8.016h-40V80h40
				c13.232,0,24,10.768,24,24V424.016z"/>
			<path d="M328,288h-64v-32h96v-48H240v-48h-64v48H56v48h96v32H88v-16H40v48h16v96H40v48h48v-16h64v16h112v-16h64v16h48v-48h-16
				v-96h16v-48h-48V288z M328,224h16v16h-16V224z M296,224h16v16h-16V224z M264,224h16v16h-16V224z M56,288h16v16H56V288z M72,448
				H56v-16h16V448z M152,432H88v-16H72v-40h64v-16H72v-40h16v-16h64V432z M192,176h32v32h-32V176z M88,240H72v-16h16V240z M120,240
				h-16v-16h16V240z M152,240h-16v-16h16V240z M248,240v8v200h-32V336h-16v112h-32V248v-8v-16h8h64h8V240z M360,448h-16v-16h16V448z
				 M344,288h16v16h-16V288z M344,360h-64v16h64v40h-16v16h-64V304h64v16h16V360z"/>
			<path d="M112,80c13.232,0,24-10.768,24-24c0-8.264-4.2-15.568-10.576-19.888C132.464,23.872,145.544,16,160,16
				s27.536,7.872,34.576,20.112C188.2,40.432,184,47.736,184,56c0,12.376,9.448,22.472,21.496,23.744
				C214.648,99.208,234.192,112,256,112c21.808,0,41.352-12.792,50.504-32.256C318.552,78.472,328,68.376,328,56
				c0-13.232-10.768-24-24-24s-24,10.768-24,24c0,8.264,4.2,15.568,10.576,19.888C283.536,88.128,270.456,96,256,96
				s-27.536-7.872-34.576-20.112C227.8,71.568,232,64.264,232,56c0-12.376-9.448-22.472-21.496-23.744
				C201.352,12.792,181.808,0,160,0s-41.352,12.792-50.504,32.256C97.448,33.528,88,43.624,88,56C88,69.232,98.768,80,112,80z
				 M304,48c4.416,0,8,3.584,8,8s-3.584,8-8,8c-4.416,0-8-3.584-8-8S299.584,48,304,48z M208,48c4.416,0,8,3.584,8,8s-3.584,8-8,8
				s-8-3.584-8-8S203.584,48,208,48z M112,48c4.416,0,8,3.584,8,8s-3.584,8-8,8s-8-3.584-8-8S107.584,48,112,48z"/>
		</g>
	</g>
</g>
<g>
</g>
<g>
</g>
<g>
</g>
<g>
</g>
<g>
</g>
<g>
</g>
<g>
</g>
<g>
</g>
<g>
</g>
<g>
</g>
<g>
</g>
<g>
</g>
<g>
</g>
<g>
</g>
<g>
</g>
</svg>
